# xmcd
#
# Track frame offsets: 
#        150
#        15895
#        31504
#        49156
#        67298
#        87064
#        104031
#        119584
#        134777
#        152942
#        170477
#        191920
#        211383
#
# Disc length: 3041 seconds
#
# Revision: 0
# Processed by: cddbd v1.5.2PL0 Copyright (c) Steve Scherf et al.
# Submitted via: ExactAudioCopy v1.1
#
DISCID=bd0bdf0d
DTITLE=Excuse Me Moses - III
DYEAR=2013
DGENRE=Country
TTITLE0=Lost in You
TTITLE1=Dont Try Just Do It
TTITLE2=My Friend
TTITLE3=Wrong
TTITLE4=Last Breath
TTITLE5=Till The End
TTITLE6=Hello Again
TTITLE7=Your Time Is Over
TTITLE8=All Inside Yourself
TTITLE9=Dont Give Up
TTITLE10=Like Home
TTITLE11=Break Me Down
TTITLE12=What If Its Happening
EXTD=
EXTT0=
EXTT1=
EXTT2=
EXTT3=
EXTT4=
EXTT5=
EXTT6=
EXTT7=
EXTT8=
EXTT9=
EXTT10=
EXTT11=
EXTT12=
PLAYORDER=
